<svg id="Шар_1" data-name="Шар 1" xmlns="http://www.w3.org/2000/svg" viewBox="0 0 173.57 106"><defs><style>.cls-1{fill:#d78149;}</style></defs><title>Иконки</title><path class="cls-1" d="M41.92,74.54H3.87a3.87,3.87,0,0,0,0,7.74H41.92a3.87,3.87,0,1,0,0-7.74Z"/><path class="cls-1" d="M24.67,56.87H47.45a3.87,3.87,0,0,0,0-7.74H24.67a3.87,3.87,0,0,0,0,7.74Z"/><path class="cls-1" d="M39.27,31.46H53a3.87,3.87,0,1,0,0-7.74H39.27a3.87,3.87,0,1,0,0,7.74Z"/><path class="cls-1" d="M169.7,0H71.44a3.87,3.87,0,0,0-3.78,3.05L46.29,101.3a3.87,3.87,0,0,0,3.79,4.7h98.25a3.86,3.86,0,0,0,3.78-3L173.48,4.7A3.87,3.87,0,0,0,169.7,0ZM145.21,98.26H54.88L74.56,7.74h90.33Z"/></svg>