<svg id="Шар_1" data-name="Шар 1" xmlns="http://www.w3.org/2000/svg" viewBox="0 0 95.63 106"><defs><style>.cls-1{fill:#d78149;}</style></defs><title>Иконки</title><path class="cls-1" d="M94.21,18a3.69,3.69,0,0,0-2.78-1C64.55,19.15,51.37,2.24,50.83,1.53a3.74,3.74,0,0,0-6,0c-.14.18-13.54,17.63-40.61,15.53a3.71,3.71,0,0,0-2.78,1A4,4,0,0,0,.1,20.7,111.25,111.25,0,0,0,4.18,54.9C11,79.24,25.6,96.81,46.35,105.7a3.73,3.73,0,0,0,2.93,0C70,96.81,84.61,79.24,91.44,54.9a110.89,110.89,0,0,0,4.08-34.2A3.94,3.94,0,0,0,94.21,18ZM47.81,97.79C29.88,89.6,17.69,74.52,11.57,53A107.65,107.65,0,0,1,7.64,25.09c21.35.35,34.6-9.89,40.17-15.4C53.29,15.1,66.2,25.1,86.87,25.1H88C87.87,38.15,84.61,81,47.81,97.79Z"/><path class="cls-1" d="M77.67,33.93a3.72,3.72,0,0,0-5.35.6L47.49,66.37,27,45.42a3.74,3.74,0,0,0-5.39,0,4,4,0,0,0,0,5.56L45.13,75a3.75,3.75,0,0,0,2.68,1.13H48a3.77,3.77,0,0,0,2.75-1.47L78.26,39.45A4,4,0,0,0,77.67,33.93Z"/></svg>