<svg id="Шар_1" data-name="Шар 1" xmlns="http://www.w3.org/2000/svg" viewBox="0 0 106.7 106.83"><defs><style>.cls-1{fill:#d78149;}</style></defs><title>Иконки</title><path class="cls-1" d="M61.67,50.85C60,50.18,58.36,49.61,57,49.12c-3.89-1.38-6.7-2.37-9-4.54a4.86,4.86,0,0,1-.78-6c1-1.81,4.21-7.28,15.55-2.86a4,4,0,1,0,2.91-7.45,31.82,31.82,0,0,0-7.4-2V19.72a4,4,0,0,0-8,0v7a16.2,16.2,0,0,0-10,7.86,12.84,12.84,0,0,0,2.17,15.74c3.52,3.38,7.38,4.74,11.85,6.31,1.41.5,2.87,1,4.45,1.63A9.36,9.36,0,0,1,64,62.81a6.24,6.24,0,0,1-.19,5c-1,2.52-4.15,5.06-8.9,5.06-9.28,0-13.17-5.31-13.3-5.49A4,4,0,1,0,35,71.84c.22.32,4.88,7,15.3,8.67v6.73a4,4,0,0,0,8,0V80.56c5.93-1,10.93-4.69,13-9.77a14.23,14.23,0,0,0,.11-11.14A17.18,17.18,0,0,0,61.67,50.85Z"/><path class="cls-1" d="M53.35.13A53.35,53.35,0,1,0,106.7,53.48,53.35,53.35,0,0,0,53.35.13Zm0,98.7A45.35,45.35,0,1,1,98.7,53.48,45.4,45.4,0,0,1,53.35,98.83Z"/></svg>