<svg id="Шар_1" data-name="Шар 1" xmlns="http://www.w3.org/2000/svg" viewBox="0 0 95.63 106"><defs><style>.cls-1{fill:#d78149;}</style></defs><title>Иконки</title><path class="cls-1" d="M91.62,13.62a4,4,0,0,0-4,4V102a4,4,0,0,0,8,0V17.62A4,4,0,0,0,91.62,13.62Z"/><path class="cls-1" d="M65.38,31.5a4,4,0,0,0-4,4V102a4,4,0,0,0,8,0V35.5A4,4,0,0,0,65.38,31.5Z"/><path class="cls-1" d="M39.12,41.12a4,4,0,0,0-4,4V102a4,4,0,0,0,8,0V45.12A4,4,0,0,0,39.12,41.12Z"/><path class="cls-1" d="M12.88,51.25a4,4,0,0,0-4,4V102a4,4,0,0,0,8,0V55.25A4,4,0,0,0,12.88,51.25Z"/><path class="cls-1" d="M67.76,1.72l4.46,6.59L52.82,21.45l-14-9.06a4,4,0,0,0-5,.51L19.06,27.45,6.45,17.71A4,4,0,1,0,1.55,24L16.93,35.92a4,4,0,0,0,2.44.83,4,4,0,0,0,2.81-1.15l15-14.75L50.7,29.61a4,4,0,0,0,4.42-.05L76.71,14.94l4.47,6.59L91.62,0Z"/></svg>